# xmcd CD database file
#
# Track frame offsets:
#	150
#	17129
#	37977
#	68844
#	95147
#	107895
#	132130
#	153155
#	185228
#	215078
#	243296
#	267728
#	300879
#	338790
#
# Disc length: 4792 seconds
#
# Revision: 0
# Processed by: cddbd v1.5.2PL0 Copyright (c) Steve Scherf et al.
# Submitted via: CDex 1.51
#
DISCID=c812b60e
DTITLE=VV.AA. - Soul Jazz   (MUSICA JAZZ, 10/2011)
DYEAR=2011
DGENRE=Jazz
TTITLE0=Johnny Griffin - Wade in the Water
TTITLE1=Roland Kirk - A Sack Full of Soul
TTITLE2=Bennie Green - Soul Stirrin'
TTITLE3=Cannonball Adderley - Work Song
TTITLE4=The Three Sounds - Sermonette
TTITLE5=David Newman and Ray Charles - Fathead
TTITLE6=Sun Ra - Lullaby for Realville
TTITLE7=Curtis Amy and Paul Bryant - Mettin' Here
TTITLE8=Horace Parlan - Fugee
TTITLE9=Horace Silver - Soulville
TTITLE10=Sam Jones - Some Kinda Mean
TTITLE11=Stanley Turrentine - We'll See Yah'll After a While, Ya Heah
TTITLE12=The Jazz Crusaders - Freedom Sound
TTITLE13=Hank Crawford - Sister Sadie
EXTD=YEAR: 2011
EXTT0=
EXTT1=
EXTT2=
EXTT3=
EXTT4=
EXTT5=
EXTT6=
EXTT7=
EXTT8=
EXTT9=
EXTT10=
EXTT11=
EXTT12=
EXTT13=
PLAYORDER=
